<svg height="512pt" viewBox="0 -41 512 511" width="512pt" xmlns="http://www.w3.org/2000/svg"><path d="m512 52.726562-46.203125-6.082031 12.0625-45.011719-54.125 14.503907c-17.300781-10.25-36.945313-15.636719-57.242187-15.636719-62.03125 0-112.5 50.46875-112.5 112.5v14.59375l-40 145.882812 40 145.878907c51.316406-13.289063 98.371093-40.046875 136.839843-78.515625 56.851563-56.851563 88.160157-132.4375 88.160157-212.839844v-15c0-5.292969-.371094-10.585938-1.105469-15.8125zm0 0" fill="#07a9f0"/><path d="m56.636719 25.355469-12.582031-15.84375-11.503907 16.644531c-4.554687 6.585938-8.417969 13.683594-11.488281 21.097656-9.542969 23.039063-11.234375 47.929688-4.886719 71.984375 3.730469 14.152344 10.25 27.496094 18.984375 39.152344l-17.832031 4.28125 3.5 14.582031c9.300781 38.730469 37.746094 68.855469 74.265625 80.917969l-17.535156 20.53125 11.40625 9.742187c17.238281 14.722657 38.238281 23.859376 60.570312 26.363282-39.984375 34.902344-92.289062 56.046875-149.535156 56.046875l6.441406 4.476562c50.527344 35.109375 109.847656 53.667969 171.550782 53.667969 25.996093 0 51.480468-3.292969 76-9.644531v-291.761719c-77.425782-4.210938-148.691407-40.945312-197.355469-102.238281zm0 0" fill="#40c1fa"/></svg>